<mxfile host="Electron" modified="2023-10-27T05:04:07.624Z" agent="Mozilla/5.0 (Windows NT 10.0; Win64; x64) AppleWebKit/537.36 (KHTML, like Gecko) draw.io/22.0.2 Chrome/114.0.5735.289 Electron/25.8.4 Safari/537.36" etag="TOV7pmKJmbbF3nKOXZmw" version="22.0.2" type="device">
  <diagram id="C5RBs43oDa-KdzZeNtuy" name="Page-1">
    <mxGraphModel dx="1571" dy="938" grid="1" gridSize="10" guides="1" tooltips="1" connect="1" arrows="1" fold="1" page="1" pageScale="1" pageWidth="827" pageHeight="1169" math="0" shadow="0">
      <root>
        <mxCell id="WIyWlLk6GJQsqaUBKTNV-0" />
        <mxCell id="WIyWlLk6GJQsqaUBKTNV-1" parent="WIyWlLk6GJQsqaUBKTNV-0" />
        <mxCell id="WIyWlLk6GJQsqaUBKTNV-4" value="no" style="rounded=0;html=1;jettySize=auto;orthogonalLoop=1;fontSize=11;endArrow=block;endFill=0;endSize=8;strokeWidth=1;shadow=0;labelBackgroundColor=none;edgeStyle=orthogonalEdgeStyle;" parent="WIyWlLk6GJQsqaUBKTNV-1" source="WIyWlLk6GJQsqaUBKTNV-6" target="WIyWlLk6GJQsqaUBKTNV-10" edge="1">
          <mxGeometry x="-0.7101" y="10" relative="1" as="geometry">
            <mxPoint as="offset" />
          </mxGeometry>
        </mxCell>
        <mxCell id="cUfWRe6s4o12fFa3fbd_-7" value="" style="edgeStyle=orthogonalEdgeStyle;rounded=0;orthogonalLoop=1;jettySize=auto;html=1;" edge="1" parent="WIyWlLk6GJQsqaUBKTNV-1" source="WIyWlLk6GJQsqaUBKTNV-6" target="cUfWRe6s4o12fFa3fbd_-0">
          <mxGeometry relative="1" as="geometry" />
        </mxCell>
        <mxCell id="cUfWRe6s4o12fFa3fbd_-8" value="yes&lt;br&gt;" style="edgeLabel;html=1;align=center;verticalAlign=middle;resizable=0;points=[];" vertex="1" connectable="0" parent="cUfWRe6s4o12fFa3fbd_-7">
          <mxGeometry x="0.25" y="4" relative="1" as="geometry">
            <mxPoint x="-3" y="-6" as="offset" />
          </mxGeometry>
        </mxCell>
        <mxCell id="WIyWlLk6GJQsqaUBKTNV-6" value="transaksi berhasil" style="rhombus;whiteSpace=wrap;html=1;shadow=0;fontFamily=Helvetica;fontSize=12;align=center;strokeWidth=1;spacing=6;spacingTop=-4;" parent="WIyWlLk6GJQsqaUBKTNV-1" vertex="1">
          <mxGeometry x="170" y="243" width="100" height="80" as="geometry" />
        </mxCell>
        <mxCell id="cUfWRe6s4o12fFa3fbd_-10" style="edgeStyle=orthogonalEdgeStyle;rounded=0;orthogonalLoop=1;jettySize=auto;html=1;exitX=0;exitY=0.5;exitDx=0;exitDy=0;" edge="1" parent="WIyWlLk6GJQsqaUBKTNV-1" source="WIyWlLk6GJQsqaUBKTNV-10">
          <mxGeometry relative="1" as="geometry">
            <mxPoint x="220" y="243" as="targetPoint" />
            <Array as="points">
              <mxPoint x="130" y="432" />
              <mxPoint x="130" y="213" />
              <mxPoint x="221" y="213" />
            </Array>
          </mxGeometry>
        </mxCell>
        <mxCell id="cUfWRe6s4o12fFa3fbd_-27" value="no" style="edgeLabel;html=1;align=center;verticalAlign=middle;resizable=0;points=[];" vertex="1" connectable="0" parent="cUfWRe6s4o12fFa3fbd_-10">
          <mxGeometry x="-0.8947" y="-3" relative="1" as="geometry">
            <mxPoint y="14" as="offset" />
          </mxGeometry>
        </mxCell>
        <mxCell id="cUfWRe6s4o12fFa3fbd_-16" value="" style="edgeStyle=orthogonalEdgeStyle;rounded=0;orthogonalLoop=1;jettySize=auto;html=1;" edge="1" parent="WIyWlLk6GJQsqaUBKTNV-1" source="WIyWlLk6GJQsqaUBKTNV-10" target="cUfWRe6s4o12fFa3fbd_-12">
          <mxGeometry relative="1" as="geometry" />
        </mxCell>
        <mxCell id="cUfWRe6s4o12fFa3fbd_-26" value="yes" style="edgeLabel;html=1;align=center;verticalAlign=middle;resizable=0;points=[];" vertex="1" connectable="0" parent="cUfWRe6s4o12fFa3fbd_-16">
          <mxGeometry x="0.5102" y="1" relative="1" as="geometry">
            <mxPoint x="9" y="-8" as="offset" />
          </mxGeometry>
        </mxCell>
        <mxCell id="WIyWlLk6GJQsqaUBKTNV-10" value="melakukan transaksi lagi?" style="rhombus;whiteSpace=wrap;html=1;shadow=0;fontFamily=Helvetica;fontSize=12;align=center;strokeWidth=1;spacing=6;spacingTop=-4;" parent="WIyWlLk6GJQsqaUBKTNV-1" vertex="1">
          <mxGeometry x="170" y="392" width="100" height="80" as="geometry" />
        </mxCell>
        <mxCell id="cUfWRe6s4o12fFa3fbd_-20" value="" style="edgeStyle=orthogonalEdgeStyle;rounded=0;orthogonalLoop=1;jettySize=auto;html=1;" edge="1" parent="WIyWlLk6GJQsqaUBKTNV-1" source="WIyWlLk6GJQsqaUBKTNV-12" target="cUfWRe6s4o12fFa3fbd_-15">
          <mxGeometry relative="1" as="geometry" />
        </mxCell>
        <mxCell id="cUfWRe6s4o12fFa3fbd_-22" style="edgeStyle=orthogonalEdgeStyle;rounded=0;orthogonalLoop=1;jettySize=auto;html=1;entryX=1;entryY=0.5;entryDx=0;entryDy=0;" edge="1" parent="WIyWlLk6GJQsqaUBKTNV-1" source="WIyWlLk6GJQsqaUBKTNV-12" target="cUfWRe6s4o12fFa3fbd_-12">
          <mxGeometry relative="1" as="geometry">
            <Array as="points">
              <mxPoint x="350" y="703" />
              <mxPoint x="350" y="548" />
            </Array>
          </mxGeometry>
        </mxCell>
        <mxCell id="WIyWlLk6GJQsqaUBKTNV-12" value="i++" style="rounded=1;whiteSpace=wrap;html=1;fontSize=12;glass=0;strokeWidth=1;shadow=0;" parent="WIyWlLk6GJQsqaUBKTNV-1" vertex="1">
          <mxGeometry x="160" y="684" width="120" height="40" as="geometry" />
        </mxCell>
        <mxCell id="cUfWRe6s4o12fFa3fbd_-6" value="" style="edgeStyle=orthogonalEdgeStyle;rounded=0;orthogonalLoop=1;jettySize=auto;html=1;" edge="1" parent="WIyWlLk6GJQsqaUBKTNV-1" source="cUfWRe6s4o12fFa3fbd_-0" target="cUfWRe6s4o12fFa3fbd_-3">
          <mxGeometry relative="1" as="geometry" />
        </mxCell>
        <mxCell id="cUfWRe6s4o12fFa3fbd_-0" value="input history[jumlahTransaksi]&lt;br&gt;input namahistory[jumlahTransaksi]" style="shape=parallelogram;perimeter=parallelogramPerimeter;whiteSpace=wrap;html=1;fixedSize=1;" vertex="1" parent="WIyWlLk6GJQsqaUBKTNV-1">
          <mxGeometry x="304" y="253" width="220" height="60" as="geometry" />
        </mxCell>
        <mxCell id="cUfWRe6s4o12fFa3fbd_-25" style="edgeStyle=orthogonalEdgeStyle;rounded=0;orthogonalLoop=1;jettySize=auto;html=1;entryX=1;entryY=0.5;entryDx=0;entryDy=0;" edge="1" parent="WIyWlLk6GJQsqaUBKTNV-1" source="cUfWRe6s4o12fFa3fbd_-3" target="WIyWlLk6GJQsqaUBKTNV-10">
          <mxGeometry relative="1" as="geometry">
            <Array as="points">
              <mxPoint x="414" y="432" />
            </Array>
          </mxGeometry>
        </mxCell>
        <mxCell id="cUfWRe6s4o12fFa3fbd_-3" value="jumlahTransaksi++" style="rounded=1;whiteSpace=wrap;html=1;fontSize=12;glass=0;strokeWidth=1;shadow=0;" vertex="1" parent="WIyWlLk6GJQsqaUBKTNV-1">
          <mxGeometry x="354" y="333" width="120" height="40" as="geometry" />
        </mxCell>
        <mxCell id="cUfWRe6s4o12fFa3fbd_-19" style="edgeStyle=orthogonalEdgeStyle;rounded=0;orthogonalLoop=1;jettySize=auto;html=1;exitX=0.5;exitY=1;exitDx=0;exitDy=0;" edge="1" parent="WIyWlLk6GJQsqaUBKTNV-1" source="cUfWRe6s4o12fFa3fbd_-11" target="WIyWlLk6GJQsqaUBKTNV-12">
          <mxGeometry relative="1" as="geometry" />
        </mxCell>
        <mxCell id="cUfWRe6s4o12fFa3fbd_-11" value="print history [i]&lt;br&gt;print namaHistory [ii]" style="shape=dataStorage;whiteSpace=wrap;html=1;fixedSize=1;" vertex="1" parent="WIyWlLk6GJQsqaUBKTNV-1">
          <mxGeometry x="140" y="618" width="160" height="40" as="geometry" />
        </mxCell>
        <mxCell id="cUfWRe6s4o12fFa3fbd_-17" value="" style="edgeStyle=orthogonalEdgeStyle;rounded=0;orthogonalLoop=1;jettySize=auto;html=1;" edge="1" parent="WIyWlLk6GJQsqaUBKTNV-1" source="cUfWRe6s4o12fFa3fbd_-12" target="cUfWRe6s4o12fFa3fbd_-11">
          <mxGeometry relative="1" as="geometry" />
        </mxCell>
        <mxCell id="cUfWRe6s4o12fFa3fbd_-23" value="yes" style="edgeLabel;html=1;align=center;verticalAlign=middle;resizable=0;points=[];" vertex="1" connectable="0" parent="cUfWRe6s4o12fFa3fbd_-17">
          <mxGeometry x="0.3091" y="-1" relative="1" as="geometry">
            <mxPoint x="-11" y="3" as="offset" />
          </mxGeometry>
        </mxCell>
        <mxCell id="cUfWRe6s4o12fFa3fbd_-21" style="edgeStyle=orthogonalEdgeStyle;rounded=0;orthogonalLoop=1;jettySize=auto;html=1;entryX=0;entryY=0.5;entryDx=0;entryDy=0;" edge="1" parent="WIyWlLk6GJQsqaUBKTNV-1" source="cUfWRe6s4o12fFa3fbd_-12" target="cUfWRe6s4o12fFa3fbd_-15">
          <mxGeometry relative="1" as="geometry">
            <Array as="points">
              <mxPoint x="110" y="548" />
              <mxPoint x="110" y="773" />
            </Array>
          </mxGeometry>
        </mxCell>
        <mxCell id="cUfWRe6s4o12fFa3fbd_-24" value="no" style="edgeLabel;html=1;align=center;verticalAlign=middle;resizable=0;points=[];" vertex="1" connectable="0" parent="cUfWRe6s4o12fFa3fbd_-21">
          <mxGeometry x="-0.8984" y="3" relative="1" as="geometry">
            <mxPoint y="7" as="offset" />
          </mxGeometry>
        </mxCell>
        <mxCell id="cUfWRe6s4o12fFa3fbd_-12" value="int = 0&lt;br&gt;i &amp;lt; jumlahTransaksi" style="rhombus;whiteSpace=wrap;html=1;shadow=0;fontFamily=Helvetica;fontSize=12;align=center;strokeWidth=1;spacing=6;spacingTop=-4;" vertex="1" parent="WIyWlLk6GJQsqaUBKTNV-1">
          <mxGeometry x="145" y="503" width="150" height="90" as="geometry" />
        </mxCell>
        <mxCell id="cUfWRe6s4o12fFa3fbd_-31" value="" style="edgeStyle=orthogonalEdgeStyle;rounded=0;orthogonalLoop=1;jettySize=auto;html=1;" edge="1" parent="WIyWlLk6GJQsqaUBKTNV-1" source="cUfWRe6s4o12fFa3fbd_-14" target="cUfWRe6s4o12fFa3fbd_-28">
          <mxGeometry relative="1" as="geometry" />
        </mxCell>
        <mxCell id="cUfWRe6s4o12fFa3fbd_-14" value="Start" style="ellipse;whiteSpace=wrap;html=1;" vertex="1" parent="WIyWlLk6GJQsqaUBKTNV-1">
          <mxGeometry x="165" y="20" width="110" height="40" as="geometry" />
        </mxCell>
        <mxCell id="cUfWRe6s4o12fFa3fbd_-15" value="End" style="ellipse;whiteSpace=wrap;html=1;" vertex="1" parent="WIyWlLk6GJQsqaUBKTNV-1">
          <mxGeometry x="165" y="753" width="110" height="40" as="geometry" />
        </mxCell>
        <mxCell id="cUfWRe6s4o12fFa3fbd_-30" value="" style="edgeStyle=orthogonalEdgeStyle;rounded=0;orthogonalLoop=1;jettySize=auto;html=1;" edge="1" parent="WIyWlLk6GJQsqaUBKTNV-1" source="cUfWRe6s4o12fFa3fbd_-28" target="WIyWlLk6GJQsqaUBKTNV-6">
          <mxGeometry relative="1" as="geometry" />
        </mxCell>
        <mxCell id="cUfWRe6s4o12fFa3fbd_-28" value="int jumlahTransaksi = 0&lt;br&gt;int history[100], namaHistory[100]" style="shape=hexagon;perimeter=hexagonPerimeter2;whiteSpace=wrap;html=1;fixedSize=1;" vertex="1" parent="WIyWlLk6GJQsqaUBKTNV-1">
          <mxGeometry x="140" y="90" width="160" height="80" as="geometry" />
        </mxCell>
      </root>
    </mxGraphModel>
  </diagram>
</mxfile>
